<?xml version="1.0" encoding="UTF-8"?>
<svg xmlns="http://www.w3.org/2000/svg" xmlns:xlink="http://www.w3.org/1999/xlink" width="512pt" height="512pt" viewBox="0 0 512 512" version="1.1">
<g id="surface12088273">
<path style=" stroke:none;fill-rule:nonzero;fill:rgb(98.431373%,63.529414%,84.313726%);fill-opacity:1;" d="M 252.078125 3.945312 C 250.996094 3.953125 249.898438 4.097656 248.796875 4.398438 C 244.398438 5.597656 241.199219 9.203125 240.398438 13.203125 L 151.203125 410.398438 C 146.003906 434.398438 151.597656 458.800781 166.796875 478 C 168.398438 480 170.398438 482 172 484 L 54.796875 484 C 44.398438 484 36 475.601562 36 465.203125 C 36 459.601562 38.402344 454 43.203125 450.398438 C 48.003906 446.796875 53.601562 445.597656 59.203125 446.796875 L 106.796875 458 C 113.195312 459.601562 119.601562 455.601562 121.203125 449.203125 C 122.804688 442.804688 118.796875 436.398438 112.398438 434.796875 L 64.796875 423.601562 C 51.996094 420.800781 38.796875 423.601562 28.398438 432 C 18 440 12.398438 452.402344 12.398438 465.601562 C 12 488.800781 31.195312 508 54.796875 508 L 236 508 C 242.800781 508 248 502.800781 248 496 C 248 489.199219 242.800781 484 236 484 L 228.796875 484 C 211.597656 484 195.601562 476.398438 185.203125 462.796875 C 174.402344 449.597656 170.398438 432.402344 174.398438 415.601562 L 258.796875 39.601562 L 260.796875 41.601562 C 277.597656 58.800781 300 68 324 68 C 348 68 370.402344 58.800781 387.203125 42 L 389.203125 40 L 473.601562 416 C 477.203125 432.800781 473.195312 450.003906 462.796875 463.203125 C 451.996094 476.402344 436.003906 484.398438 419.203125 484.398438 L 416 484.398438 C 409.199219 484.398438 404 489.597656 404 496.398438 C 404 503.199219 409.199219 508.398438 416 508.398438 L 419.203125 508.398438 C 443.601562 508.398438 466.402344 497.597656 481.601562 478.398438 C 496.800781 459.199219 502.402344 434.796875 497.203125 410.796875 L 407.601562 13.203125 C 406.800781 8.804688 403.601562 5.597656 399.203125 4.398438 C 395.203125 3.199219 390.402344 4.402344 387.203125 7.601562 L 370 24.796875 C 358 37.195312 341.601562 44 324 44 C 306.398438 44 290 37.195312 278 24.796875 L 260.796875 7.601562 C 258.398438 5.203125 255.320312 3.925781 252.078125 3.945312 Z M 284 124 C 277.371094 124 272 129.371094 272 136 C 272 142.628906 277.371094 148 284 148 C 290.628906 148 296 142.628906 296 136 C 296 129.371094 290.628906 124 284 124 Z M 364 124 C 357.371094 124 352 129.371094 352 136 C 352 142.628906 357.371094 148 364 148 C 370.628906 148 376 142.628906 376 136 C 376 129.371094 370.628906 124 364 124 Z M 235.992188 284.078125 C 235.203125 284.097656 234.402344 284.199219 233.601562 284.398438 C 227.203125 285.597656 222.800781 292 224 298.398438 L 260 478.796875 C 263.199219 495.597656 278.402344 508 295.601562 508 L 299.601562 508 C 308.800781 508 317.203125 504.398438 323.601562 498.796875 C 330 504.398438 338.402344 508 347.601562 508 C 364.800781 508 379.601562 495.597656 383.203125 478.796875 L 419.203125 298.398438 C 420.402344 292 416.402344 285.597656 409.601562 284.398438 C 403.203125 283.199219 396.800781 287.199219 395.601562 294 L 359.601562 474.398438 C 358.402344 480 353.601562 484 347.601562 484 C 340.800781 484 335.601562 478.398438 335.601562 472 L 335.601562 336 C 335.601562 329.199219 330.402344 324 323.601562 324 C 316.800781 324 311.601562 329.199219 311.601562 336 L 311.601562 472 C 311.601562 478.800781 306 484 299.601562 484 L 295.601562 484 C 290 484 284.800781 480 283.601562 474.398438 L 247.601562 294 C 246.550781 288.050781 241.519531 283.941406 235.992188 284.078125 Z M 235.992188 284.078125 "/>
</g>
</svg>
