<?xml version="1.0" encoding="UTF-8"?>
<svg xmlns="http://www.w3.org/2000/svg" xmlns:xlink="http://www.w3.org/1999/xlink" width="26pt" height="26pt" viewBox="0 0 26 26" version="1.1">
<g id="surface12070784">
<path style=" stroke:none;fill-rule:nonzero;fill:rgb(100%,100%,100%);fill-opacity:1;" d="M 22.609375 6.078125 L 20.390625 8.375 C 20.390625 8.375 19.34375 8.09375 18.585938 8.09375 C 17.828125 8.09375 16.9375 8.390625 16.9375 8.390625 L 15.328125 5.894531 C 15.328125 5.894531 14.09375 6.96875 14.09375 10.132812 C 14.09375 13.300781 16.125 14.875 17.558594 15.246094 C 11.34375 14.929688 13.25 7.34375 13.25 7.34375 C 13.25 7.34375 11.789062 4.0625 10.46875 4.0625 C 8.707031 4.0625 6.472656 6.589844 6.179688 7.464844 C 5.972656 7.398438 4.867188 6.886719 4.867188 5.546875 C 4.867188 3.15625 7.097656 1.660156 9.328125 1.660156 C 11.34375 1.660156 12.226562 2.511719 12.980469 3.550781 C 13.769531 4.640625 14.785156 3.660156 14.1875 2.492188 C 13.976562 2.078125 12.507812 0.046875 9.699219 0.046875 C 5.839844 0.046875 2.996094 2.058594 2.996094 5.679688 C 2.996094 8.269531 5.054688 9.152344 5.054688 9.152344 C 5.054688 9.152344 3.984375 10.0625 3.984375 13.089844 C 3.984375 18.359375 4.414062 23.257812 4.507812 24.789062 C 4.546875 25.476562 4.90625 25.949219 5.160156 25.949219 C 5.503906 25.953125 5.792969 25.90625 5.925781 24.921875 C 6.277344 22.371094 6.660156 18.113281 7.066406 16.640625 C 7.46875 15.191406 7.996094 13.964844 8.949219 14.019531 C 10.003906 14.078125 10.699219 15.0625 10.953125 17.796875 C 11.140625 19.820312 11.15625 22.886719 11.117188 23.933594 C 11.050781 25.828125 11.625 25.945312 11.976562 25.949219 C 12.40625 25.949219 12.558594 25.382812 12.78125 24.175781 C 13.808594 18.550781 14.472656 16.121094 15.421875 16.121094 C 16.628906 16.121094 16.9375 19 17.390625 24.46875 C 17.503906 25.8125 18.046875 25.96875 18.625 25.96875 C 19.386719 25.96875 19.15625 24.65625 19.296875 23.269531 C 19.570312 20.554688 19.59375 15.246094 19.59375 15.246094 C 19.59375 15.246094 22.921875 14.933594 22.921875 10.132812 C 22.921875 7.894531 22.609375 6.078125 22.609375 6.078125 Z M 17.050781 11.972656 C 16.246094 11.824219 16.269531 10.746094 16.347656 10.449219 L 17.066406 10.757812 L 17.453125 11.8125 L 17.800781 11.066406 L 18.667969 11.433594 C 18.667969 11.433594 17.859375 12.121094 17.050781 11.972656 Z M 20.839844 11.964844 C 20.023438 12.125 19.210938 11.382812 19.210938 11.382812 L 20.308594 10.886719 L 20.5 11.90625 L 20.859375 10.640625 L 21.550781 10.320312 C 21.628906 10.640625 21.652344 11.808594 20.839844 11.964844 Z M 20.839844 11.964844 "/>
</g>
</svg>
