<?xml version="1.0" encoding="UTF-8"?><svg version="1.1" id="no_x5F_connection" xmlns="http://www.w3.org/2000/svg" xmlns:xlink="http://www.w3.org/1999/xlink" x="0px" y="0px" viewBox="0 0 95.998 58.679" style="enable-background:new 0 0 95.998 58.679;" xml:space="preserve" width="96px" height="59px">
<g>
	<path style="opacity:0.3;enable-background:new    ;" d="M81.18,16.441c-0.4,0.54-0.7,1.14-0.9,1.78c-0.74-0.14-1.5-0.22-2.28-0.22
		c-6.28,0-11.44,4.84-11.96,11c-0.02-0.32-0.04-0.66-0.04-1c0-6.62,5.38-12,12-12C79.1,16.001,80.16,16.141,81.18,16.441z"/>
	<g>
		
			<linearGradient id="SVGID_1_" gradientUnits="userSpaceOnUse" x1="78.0004" y1="466.5533" x2="78.0004" y2="438.9272" gradientTransform="matrix(1 0 0 -1 0 479.7545)">
			<stop offset="0" style="stop-color:#353535"/>
			<stop offset="1" style="stop-color:#797979"/>
		</linearGradient>
		<path style="fill:url(#SVGID_1_);" d="M90,28.001c0,6.62-5.38,12-12,12s-12-5.38-12-12s5.38-12,12-12c1.1,0,2.16,0.14,3.18,0.44
			c-0.74,1-1.18,2.22-1.18,3.56c0,3.32,2.68,6,6,6c1.34,0,2.56-0.44,3.56-1.18C89.86,25.841,90,26.901,90,28.001z"/>
		<path style="fill:#797979;" d="M48,58.679c-1.538,0-3.076-0.584-4.247-1.756l-6.334-6.334c-0.758-0.758-2.08-0.758-2.838,0
			l-6.827,6.826c-0.781,0.781-2.047,0.781-2.828,0s-0.781-2.047,0-2.828l6.827-6.826c2.342-2.344,6.152-2.344,8.494,0l6.334,6.334
			c0.783,0.781,2.055,0.781,2.838,0l6.334-6.334c2.342-2.344,6.152-2.344,8.494,0l6.831,6.83c0.779,0.781,0.779,2.047,0,2.828
			c-0.781,0.779-2.049,0.781-2.829,0l-6.83-6.83c-0.758-0.758-2.08-0.758-2.838,0l-6.334,6.334
			C51.076,58.095,49.538,58.679,48,58.679z"/>
		<path style="fill:#797979;" d="M91.418,12.173c-4.307,0-12.35-1.17-17.133-9.143c-0.568-0.947-0.262-2.176,0.686-2.744
			c0.949-0.57,2.176-0.262,2.744,0.686C82.92,9.65,93.24,8.097,93.676,8.027c1.107-0.16,2.117,0.564,2.295,1.652
			s-0.555,2.113-1.643,2.295C94.178,11.999,93.074,12.173,91.418,12.173z"/>
		
			<linearGradient id="SVGID_2_" gradientUnits="userSpaceOnUse" x1="62.0004" y1="466.5533" x2="62.0004" y2="438.9272" gradientTransform="matrix(1 0 0 -1 -44 479.7545)">
			<stop offset="0" style="stop-color:#353535"/>
			<stop offset="1" style="stop-color:#797979"/>
		</linearGradient>
		<path style="fill:url(#SVGID_2_);" d="M30,28.001c0,6.62-5.38,12-12,12s-12-5.38-12-12s5.38-12,12-12c1.1,0,2.16,0.14,3.18,0.44
			c-0.74,1-1.18,2.22-1.18,3.56c0,3.32,2.68,6,6,6c1.34,0,2.56-0.44,3.56-1.18C29.86,25.841,30,26.901,30,28.001z"/>
		<path style="fill:#797979;" d="M4.583,12.173c-1.657,0-2.761-0.174-2.912-0.199c-1.089-0.182-1.825-1.213-1.644-2.301
			C0.21,8.585,1.246,7.857,2.323,8.027l0,0c0.438,0.07,10.757,1.619,15.962-7.055c0.568-0.947,1.795-1.254,2.744-0.686
			c0.947,0.568,1.254,1.797,0.686,2.744C16.932,11.003,8.889,12.173,4.583,12.173z"/>
	</g>
	<path style="opacity:0.3;enable-background:new    ;" d="M21.18,16.441c-0.4,0.54-0.7,1.14-0.9,1.78c-0.74-0.14-1.5-0.22-2.28-0.22
		c-6.28,0-11.44,4.84-11.96,11c-0.02-0.32-0.04-0.66-0.04-1c0-6.62,5.38-12,12-12C19.1,16.001,20.16,16.141,21.18,16.441z"/>
</g>
</svg>